<?xml version="1.0" standalone="no"?>
<!DOCTYPE svg PUBLIC "-//W3C//DTD SVG 20010904//EN"
 "http://www.w3.org/TR/2001/REC-SVG-20010904/DTD/svg10.dtd">
<svg version="1.0" xmlns="http://www.w3.org/2000/svg"
 width="96.000000pt" height="96.000000pt" viewBox="0 0 96.000000 96.000000"
 preserveAspectRatio="xMidYMid meet">

<g transform="translate(0.000000,96.000000) scale(0.100000,-0.100000)"
fill="#000000" stroke="none">
<path d="M416 856 c-22 -8 -51 -23 -65 -34 -30 -22 -71 -88 -71 -115 0 -9 -12
-35 -26 -57 -17 -25 -30 -65 -37 -109 -10 -60 -14 -71 -34 -76 -26 -6 -63 -59
-63 -90 0 -34 37 -83 72 -96 21 -7 44 -29 63 -58 112 -171 338 -171 450 0 19
29 42 51 63 58 35 13 72 62 72 96 0 31 -37 84 -63 90 -20 5 -24 16 -34 76 -7
44 -20 84 -37 109 -14 22 -26 47 -26 55 0 22 -34 87 -56 106 -56 49 -145 68
-208 45z m137 -30 c117 -50 144 -210 51 -298 -116 -108 -304 -26 -304 132 0
102 76 179 178 180 23 0 57 -6 75 -14z m-243 -281 c33 -53 102 -90 170 -89 94
0 164 51 196 143 l13 36 16 -39 c13 -31 16 -66 13 -176 -3 -132 -4 -138 -33
-186 -19 -30 -49 -60 -79 -79 -44 -27 -58 -30 -126 -30 -68 0 -82 3 -126 30
-30 19 -60 49 -79 79 -29 48 -30 54 -33 186 -3 112 0 144 13 176 l17 39 8 -27
c5 -15 18 -44 30 -63z m-100 -114 c0 -10 -7 -24 -15 -31 -20 -17 -19 -33 5
-55 22 -20 27 -45 8 -45 -6 0 -22 10 -35 22 -30 28 -30 74 -1 105 26 28 38 29
38 4z m578 -1 c29 -27 29 -76 0 -107 -21 -23 -48 -31 -48 -14 0 4 9 20 21 35
20 25 19 66 -2 66 -5 0 -9 9 -9 20 0 25 11 25 38 0z"/>
<path d="M468 673 c-24 -82 -26 -116 -8 -96 17 18 53 164 43 174 -7 7 -18 -19
-35 -78z"/>
<path d="M385 700 l-29 -30 29 -30 c15 -16 32 -27 37 -24 5 4 -1 17 -13 30
l-22 24 22 24 c12 13 18 26 13 30 -5 3 -22 -8 -37 -24z"/>
<path d="M536 711 c-3 -4 3 -16 14 -26 20 -18 20 -18 -1 -41 -27 -29 -9 -39
25 -13 32 25 33 39 3 67 -25 24 -33 26 -41 13z"/>
</g>
</svg>
